<svg width="50" height="53" viewBox="0 0 50 53" fill="none" xmlns="http://www.w3.org/2000/svg">
<path d="M25.0186 6.44182C25.0119 6.44012 25.0051 6.44012 24.9983 6.44182C24.9915 6.44182 24.9848 6.44012 24.978 6.44012V6.44182C16.2455 6.54852 9.16943 13.6805 9.16943 22.4384C9.16943 31.1979 16.2455 38.3265 24.978 38.4349V38.4366C24.9848 38.4366 24.9915 38.4366 24.9983 38.4349C25.0051 38.4349 25.0119 38.4366 25.0186 38.4366V38.4349C33.7528 38.3299 40.8272 31.2013 40.8272 22.4384C40.8289 13.6839 33.7528 6.55191 25.0186 6.44182Z" fill="black"/>
<path d="M43.7691 35.8826C44.2297 35.2136 44.5414 34.5074 44.6752 33.8299C44.8191 33.1169 44.7802 32.4479 44.5922 31.8737L44.5888 31.8703C44.5854 31.8585 44.582 31.8449 44.5786 31.8348C44.5685 31.8128 44.5583 31.789 44.5549 31.7653L44.5515 31.7569C44.3042 31.0523 44.2738 30.1801 44.4635 29.2824L44.455 29.2774C44.4906 29.1249 44.5278 28.9742 44.5769 28.8201C44.7124 28.4102 44.8886 28.0291 45.0901 27.6836C45.8556 26.6048 48.0591 25.6733 48.0591 22.3046C48.0591 18.7784 45.2171 17.8232 44.6819 16.2887C44.6684 16.2549 44.6514 16.2362 44.6379 16.2057C44.6091 16.1312 44.5803 16.0601 44.5549 15.9839C44.2145 14.9084 44.1857 13.8414 44.4668 12.9997L44.4889 12.9421C44.6718 12.3984 44.7175 11.7464 44.5989 11.0537H44.5972V11.0486C44.582 10.9605 44.5617 10.8724 44.5431 10.7827L44.5414 10.7556C44.521 10.676 44.5007 10.5947 44.477 10.5151L44.4584 10.4541C44.4414 10.3847 44.4177 10.3135 44.3906 10.2458L44.3568 10.1543L44.2907 9.98666L44.2399 9.85456L44.1891 9.74616C44.1603 9.6835 44.1332 9.62422 44.1027 9.56325L44.0875 9.53446C43.9469 9.26347 43.7843 8.99587 43.5963 8.73844L43.5624 8.69271L43.5438 8.669C43.0306 7.97291 42.4175 7.43263 41.7824 7.07866C41.149 6.7213 40.4969 6.55024 39.8991 6.55532H39.8923C39.877 6.55532 39.8652 6.55532 39.855 6.55363C39.8296 6.55532 39.8076 6.55701 39.7805 6.55532H39.7703C39.0268 6.57564 38.1851 6.33345 37.3908 5.87278L37.3857 5.87786C37.2553 5.79826 37.1215 5.71188 36.9928 5.61873C36.0833 4.94804 35.438 4.09952 35.1738 3.25439L35.1534 3.19342C34.9841 2.64637 34.6386 2.09424 34.1339 1.60308V1.60139C34.0695 1.53703 34.0018 1.47436 33.9323 1.41678L33.9086 1.39476C33.8459 1.34226 33.7833 1.28806 33.7172 1.23725L33.6681 1.1983L33.4886 1.06789L33.409 1.01369L33.2566 0.913765L33.138 0.840938L33.033 0.78166C32.9737 0.746093 32.9144 0.715608 32.8552 0.685122L32.8264 0.669879C32.5571 0.532693 32.2675 0.41075 31.9626 0.312519L31.9084 0.295582L31.8745 0.283726C31.0514 0.0262913 30.2368 -0.0499231 29.5136 0.0347596C28.7904 0.121136 28.162 0.363328 27.6827 0.724076L27.676 0.72577C27.6658 0.735932 27.654 0.742706 27.6421 0.749481C27.6252 0.768111 27.6065 0.78166 27.5828 0.793516L27.5777 0.798597C26.9833 1.25588 26.1652 1.55058 25.249 1.64881V1.65728C25.166 1.66575 25.0813 1.66744 24.9983 1.66913C24.9136 1.66744 24.8289 1.66744 24.7476 1.65728V1.6505C23.8314 1.55227 23.0117 1.25758 22.4189 0.80029L22.4138 0.795209C22.3935 0.779966 22.3731 0.768111 22.3562 0.747787C22.3444 0.741013 22.3325 0.734238 22.3223 0.724076L22.3173 0.722382C21.8363 0.361634 21.2079 0.119442 20.4847 0.0330659C19.7632 -0.0516167 18.9503 0.0245976 18.1238 0.282033L18.0916 0.293888L18.0374 0.312519C17.7325 0.41075 17.4446 0.532693 17.1736 0.669879L17.1448 0.685122C17.0856 0.715608 17.0263 0.746093 16.967 0.78166L16.862 0.840938L16.7434 0.913765L16.591 1.01369L16.5114 1.06789L16.3353 1.19491L16.2845 1.23556C16.2184 1.28637 16.1557 1.33887 16.0931 1.39137L16.0694 1.41339C15.9999 1.47098 15.9322 1.53364 15.8678 1.598L15.8661 1.59969C15.3614 2.09085 15.0176 2.64468 14.8482 3.19003L14.8279 3.2527C14.5654 4.09783 13.9201 4.94804 13.0106 5.61704C12.8802 5.71357 12.7447 5.79826 12.616 5.87786L12.6092 5.87108C11.8149 6.33176 10.9749 6.57395 10.2314 6.55532H10.2212C10.1941 6.55701 10.1704 6.55532 10.1467 6.55363C10.1314 6.55532 10.123 6.55532 10.106 6.55532H10.1009C9.4997 6.55024 8.85103 6.7196 8.2176 7.07697C7.58248 7.43094 6.96938 7.97121 6.4562 8.6673L6.43588 8.69271L6.40201 8.74013C6.21232 8.99587 6.05142 9.26516 5.91085 9.53615L5.8956 9.56325C5.86681 9.62422 5.83802 9.6835 5.81092 9.74616L5.76011 9.85456L5.70761 9.98666L5.64156 10.156L5.61107 10.2458C5.58567 10.3135 5.56195 10.3847 5.54332 10.4524L5.52469 10.5151C5.50098 10.593 5.47727 10.6743 5.46033 10.7556L5.45525 10.7844C5.43493 10.8724 5.41291 10.9639 5.39936 11.0486V11.052C5.28081 11.7464 5.32654 12.3967 5.51114 12.9421L5.53147 12.9997C5.81261 13.8414 5.78382 14.9084 5.4434 15.9839C5.41969 16.0584 5.3892 16.1295 5.36041 16.2041C5.34517 16.2345 5.32823 16.2549 5.31637 16.287C4.78118 17.8215 1.93923 18.7767 1.93923 22.3029C1.93923 25.6716 4.14267 26.6031 4.9082 27.6819C5.10975 28.0274 5.28419 28.4085 5.42138 28.8184C5.4705 28.9725 5.50945 29.1232 5.54332 29.2757L5.53486 29.2807C5.72624 30.1784 5.69745 31.0506 5.44848 31.7552L5.44509 31.7636C5.44171 31.7873 5.43154 31.8111 5.42138 31.8331C5.41799 31.8466 5.41461 31.8602 5.41122 31.8686L5.40783 31.872C5.21814 32.4462 5.18088 33.1152 5.32484 33.8282C5.45864 34.504 5.77027 35.2119 6.23095 35.8809L0 47.5552H6.64589L10.0213 52.6735L15.7645 43.2161C15.8102 43.2618 15.8407 43.3177 15.8898 43.3618C16.425 43.8512 17.1296 44.2679 17.9527 44.5372C18.2576 44.6371 18.5624 44.7082 18.8622 44.7556L18.8927 44.7607C18.9621 44.7709 19.0282 44.7777 19.0925 44.7861L19.2179 44.8031L19.3568 44.8149L19.5363 44.8268H19.6345H19.853H19.914C19.997 44.8217 20.0816 44.8183 20.1612 44.8098L20.1917 44.8081C20.2849 44.7997 20.3746 44.7844 20.4661 44.7726H20.4678C21.1639 44.6693 21.7668 44.4254 22.2258 44.0816L22.2749 44.046C22.9541 43.5396 23.9279 43.2415 25 43.2093C26.0721 43.2432 27.0459 43.5396 27.7251 44.046L27.7725 44.0816C28.2315 44.4254 28.8344 44.6727 29.5322 44.7726C29.6254 44.7844 29.7134 44.7997 29.8066 44.8081L29.8388 44.8098C29.9201 44.8183 30.0047 44.8217 30.086 44.8268H30.147H30.3672H30.4637L30.6432 44.8149L30.7821 44.8031L30.9075 44.7861C30.9718 44.7777 31.0379 44.7709 31.1073 44.7607L31.1378 44.7556C31.4393 44.7082 31.7424 44.6371 32.0473 44.5372C32.8687 44.2679 33.5733 43.8512 34.1118 43.3618C34.1593 43.3177 34.1914 43.2618 34.2355 43.2161L39.9804 52.6735L43.3541 47.5569H50L43.7691 35.8826ZM41.4386 27.3263C41.2523 27.9563 41.0338 28.5728 40.7747 29.1808C39.9008 31.2437 38.6542 33.0965 37.0639 34.6869C35.4752 36.2755 33.6241 37.5271 31.5629 38.396C29.4814 39.275 27.2763 39.7255 25 39.7492C22.7254 39.7255 20.5186 39.275 18.4388 38.396C16.3759 37.5221 14.5248 36.2755 12.9361 34.6869C11.3458 33.0982 10.0959 31.2437 9.22532 29.1808C8.96789 28.5762 8.74941 27.9563 8.56141 27.3263C8.35479 26.5709 7.86363 24.5538 7.86363 22.4401C7.86363 19.7624 8.56141 17.5539 8.56141 17.5539C8.74771 16.9256 8.9662 16.3074 9.22532 15.6977C10.0976 13.6348 11.3475 11.7853 12.9378 10.195C14.5265 8.60633 16.3776 7.35642 18.4405 6.48419C20.522 5.60518 22.7271 5.15467 25.0017 5.13265C27.2763 5.15467 29.4831 5.60518 31.5646 6.48419C33.6258 7.35642 35.4786 8.60633 37.0656 10.195C38.6559 11.7853 39.9075 13.6365 40.7764 15.6977C41.0338 16.3057 41.2523 16.9256 41.4403 17.5539C41.4403 17.5539 42.1381 19.7624 42.1381 22.4401C42.1364 24.5538 41.6452 26.5709 41.4386 27.3263Z" fill="black"/>
</svg>
