<svg width="50" height="55" viewBox="0 0 50 55" fill="none" xmlns="http://www.w3.org/2000/svg">
<path d="M42.89 37.7273L37.8027 45.0364L34.2127 42.0901C33.8254 41.7701 33.2518 41.8282 32.9336 42.2155C32.6145 42.6037 32.6709 43.1773 33.06 43.4946L37.4109 47.0664C37.5736 47.201 37.7781 47.2728 37.9872 47.2728C38.0281 47.2728 38.07 47.2701 38.1118 47.2637C38.3627 47.2292 38.5881 47.091 38.7336 46.8828L44.3827 38.7655C44.6691 38.3537 44.5681 37.7873 44.1554 37.5001C43.7427 37.2119 43.1772 37.3146 42.89 37.7273Z" fill="#FCC028"/>
<path d="M39.0909 30.9555V6.36364C39.0909 5.86091 38.6836 5.45455 38.1818 5.45455H30.9091V3.63636C30.9091 3.13364 30.5018 2.72727 30 2.72727H24.5455V0.909091C24.5455 0.406364 24.1382 0 23.6364 0H15.4545C14.9527 0 14.5455 0.406364 14.5455 0.909091V2.72727H9.09091C8.58909 2.72727 8.18182 3.13364 8.18182 3.63636V5.45455H0.909091C0.407273 5.45455 0 5.86091 0 6.36364V51.8182C0 52.3209 0.407273 52.7273 0.909091 52.7273H31.9127C33.7327 53.8727 35.8782 54.5455 38.1818 54.5455C44.6982 54.5455 50 49.2436 50 42.7273C50 36.5173 45.1827 31.4218 39.0909 30.9555ZM16.3636 1.81818H22.7273V3.63636V5.45455H16.3636V3.63636V1.81818ZM10 4.54545H14.5455V6.36364C14.5455 6.86636 14.9527 7.27273 15.4545 7.27273H23.6364C24.1382 7.27273 24.5455 6.86636 24.5455 6.36364V4.54545H29.0909V6.36364V8.18182H10V6.36364V4.54545ZM1.81818 50.9091V7.27273H8.18182V9.09091C8.18182 9.59364 8.58909 10 9.09091 10H30C30.5018 10 30.9091 9.59364 30.9091 9.09091V7.27273H37.2727V30.9436C37.2209 30.9473 37.1709 30.9582 37.1191 30.9627C36.9418 30.9791 36.7673 31.0045 36.5927 31.0291C36.3845 31.0573 36.1755 31.0855 35.9709 31.1236C35.7955 31.1573 35.6245 31.1991 35.4518 31.24C35.2527 31.2873 35.0536 31.3355 34.8591 31.3927C34.6891 31.4427 34.5227 31.5 34.3564 31.5573C34.1655 31.6227 33.9764 31.69 33.79 31.7655C33.6273 31.8309 33.4673 31.9018 33.3073 31.9745C33.1255 32.0573 32.9464 32.1427 32.77 32.2336C32.6145 32.3136 32.4618 32.3982 32.3109 32.4855C32.14 32.5836 31.9718 32.6855 31.8064 32.7927C31.6591 32.8873 31.5145 32.9845 31.3727 33.0855C31.2118 33.1991 31.0555 33.3173 30.9009 33.4391C30.7645 33.5464 30.63 33.6545 30.4991 33.7673C30.3491 33.8964 30.2036 34.03 30.0609 34.1664C29.9364 34.2845 29.8127 34.4036 29.6927 34.5273C29.5545 34.67 29.4227 34.8182 29.2918 34.9682C29.1791 35.0973 29.0664 35.2255 28.96 35.3591C28.8345 35.5155 28.7173 35.6773 28.6 35.84C28.5009 35.9782 28.4 36.1145 28.3064 36.2573C28.1945 36.4273 28.0927 36.6027 27.9891 36.7782C27.9045 36.9236 27.8173 37.0664 27.7382 37.2145C27.6409 37.3991 27.5545 37.5891 27.4664 37.7782C27.3973 37.9282 27.3236 38.0755 27.26 38.2291C27.1782 38.4282 27.1082 38.6327 27.0373 38.8364C26.9836 38.9882 26.9255 39.1382 26.8782 39.2927C26.8118 39.5109 26.7609 39.7345 26.7073 39.9573C26.6718 40.1055 26.6291 40.25 26.5982 40.4C26.5482 40.65 26.5155 40.9064 26.4818 41.1618C26.4645 41.2909 26.4391 41.4164 26.4255 41.5464C26.3845 41.9364 26.3636 42.3291 26.3636 42.7273C26.3636 43.1227 26.3845 43.5155 26.4236 43.9036C26.4382 44.0509 26.4673 44.1927 26.4873 44.3391C26.52 44.5782 26.5491 44.8173 26.5964 45.0527C26.6282 45.2118 26.6736 45.3664 26.7118 45.5236C26.7645 45.7409 26.8136 45.9591 26.8791 46.1727C26.9236 46.3173 26.9791 46.4573 27.0291 46.6C27.1055 46.8209 27.1809 47.0427 27.2709 47.2582C27.3209 47.3791 27.38 47.4945 27.4345 47.6127C27.5391 47.8436 27.6455 48.0736 27.7645 48.2973C27.8173 48.3945 27.8764 48.4882 27.9318 48.5836C28.0664 48.8191 28.2027 49.0518 28.3536 49.2773C28.4091 49.36 28.47 49.4382 28.5273 49.52C28.6873 49.7473 28.8509 49.9727 29.0282 50.1891C29.0936 50.2691 29.1645 50.3436 29.2318 50.4218C29.3727 50.5855 29.5073 50.7527 29.6573 50.9091H1.81818ZM38.1818 52.7273C36.1291 52.7273 34.2191 52.1036 32.63 51.0391C32.32 50.8318 32.0273 50.6064 31.7464 50.37C31.6482 50.2873 31.5555 50.1973 31.4609 50.11C31.2818 49.9473 31.1082 49.78 30.9427 49.6064C30.8364 49.4945 30.7336 49.3809 30.6327 49.2655C30.4836 49.0945 30.3436 48.9164 30.2073 48.7355C30.12 48.62 30.03 48.5073 29.9473 48.3882C29.7464 48.0964 29.5573 47.7964 29.3882 47.4855C29.3491 47.4127 29.3182 47.3355 29.2809 47.2627C29.1482 47.0027 29.0245 46.7391 28.9145 46.4682C28.8673 46.35 28.8264 46.2291 28.7827 46.1082C28.6973 45.87 28.6191 45.6291 28.5509 45.3845C28.5164 45.2582 28.4827 45.1327 28.4527 45.0045C28.3918 44.7455 28.3445 44.4827 28.3045 44.2182C28.2873 44.1045 28.2655 43.9927 28.2527 43.8773C28.21 43.4982 28.1818 43.1145 28.1818 42.7273C28.1818 37.2136 32.6682 32.7273 38.1818 32.7273C43.6955 32.7273 48.1818 37.2136 48.1818 42.7273C48.1818 48.2409 43.6955 52.7273 38.1818 52.7273Z" fill="black"/>
<path d="M6.36368 16.3636H18.1819C18.6837 16.3636 19.091 15.9572 19.091 15.4545C19.091 14.9518 18.6837 14.5454 18.1819 14.5454H6.36368C5.86186 14.5454 5.45459 14.9518 5.45459 15.4545C5.45459 15.9572 5.86186 16.3636 6.36368 16.3636Z" fill="black"/>
<path d="M18.1819 41.8181H6.36368C5.86186 41.8181 5.45459 42.2245 5.45459 42.7272C5.45459 43.2299 5.86186 43.6363 6.36368 43.6363H18.1819C18.6837 43.6363 19.091 43.2299 19.091 42.7272C19.091 42.2245 18.6837 41.8181 18.1819 41.8181Z" fill="black"/>
<path d="M6.36368 21.8182H32.7273C33.2291 21.8182 33.6364 21.4118 33.6364 20.9091C33.6364 20.4064 33.2291 20 32.7273 20H6.36368C5.86186 20 5.45459 20.4064 5.45459 20.9091C5.45459 21.4118 5.86186 21.8182 6.36368 21.8182Z" fill="black"/>
<path d="M6.36368 32.7272H28.1819C28.6837 32.7272 29.091 32.3209 29.091 31.8181C29.091 31.3154 28.6837 30.9091 28.1819 30.9091H6.36368C5.86186 30.9091 5.45459 31.3154 5.45459 31.8181C5.45459 32.3209 5.86186 32.7272 6.36368 32.7272Z" fill="black"/>
<path d="M23.6364 36.3636H6.36368C5.86186 36.3636 5.45459 36.77 5.45459 37.2727C5.45459 37.7755 5.86186 38.1818 6.36368 38.1818H23.6364C24.1382 38.1818 24.5455 37.7755 24.5455 37.2727C24.5455 36.77 24.1382 36.3636 23.6364 36.3636Z" fill="black"/>
<path d="M6.36368 27.2728H19.091C19.5928 27.2728 20 26.8664 20 26.3637C20 25.861 19.5928 25.4546 19.091 25.4546H6.36368C5.86186 25.4546 5.45459 25.861 5.45459 26.3637C5.45459 26.8664 5.86186 27.2728 6.36368 27.2728Z" fill="black"/>
<path d="M32.7273 25.4546H26.3637C25.8619 25.4546 25.4546 25.861 25.4546 26.3637C25.4546 26.8664 25.8619 27.2728 26.3637 27.2728H32.7273C33.2291 27.2728 33.6364 26.8664 33.6364 26.3637C33.6364 25.861 33.2291 25.4546 32.7273 25.4546Z" fill="black"/>
</svg>
